<svg width="336.000000" height="20.000000" viewBox="0 0 336 20" fill="none" xmlns="http://www.w3.org/2000/svg" xmlns:xlink="http://www.w3.org/1999/xlink">
	<desc>
			Created with Pixso.
	</desc>
	<defs/>
	<path id="Опыт6 лет" d="M98.4336 15.1128Q96.9502 15.1128 95.7607 14.4634Q94.5713 13.8105 93.8911 12.6621Q93.2144 11.5137 93.2144 10.0986Q93.2144 8.68701 93.8911 7.53857Q94.5713 6.39014 95.7607 5.74072Q96.9502 5.08789 98.4336 5.08789Q99.9033 5.08789 101.093 5.74072Q102.286 6.39014 102.956 7.53174Q103.629 8.67334 103.629 10.0986Q103.629 11.5273 102.956 12.6689Q102.286 13.8105 101.093 14.4634Q99.9033 15.1128 98.4336 15.1128ZM98.4336 13.8652Q99.5137 13.8652 100.375 13.3765Q101.236 12.8877 101.732 12.0264Q102.228 11.165 102.228 10.0986Q102.228 9.03564 101.732 8.17432Q101.236 7.31299 100.375 6.82422Q99.5137 6.33545 98.4336 6.33545Q97.3569 6.33545 96.4819 6.82422Q95.6069 7.31299 95.1079 8.17432Q94.6123 9.03564 94.6123 10.0986Q94.6123 11.165 95.1079 12.0264Q95.6069 12.8877 96.4819 13.3765Q97.3569 13.8652 98.4336 13.8652ZM112.548 7.57959L112.548 15L111.205 15L111.205 8.75537L107.018 8.75537L107.018 15L105.674 15L105.674 7.57959L112.548 7.57959ZM118.498 10.0986Q119.896 10.1123 120.638 10.7446Q121.383 11.3735 121.383 12.522Q121.383 13.7251 120.577 14.3779Q119.773 15.0273 118.273 15.0137L115.152 15L115.152 7.57959L116.496 7.57959L116.496 10.085L118.498 10.0986ZM122.487 7.57959L123.83 7.57959L123.83 15L122.487 15L122.487 7.57959ZM118.177 13.9917Q119.086 14.0054 119.555 13.6294Q120.023 13.25 120.023 12.5083Q120.023 11.7803 119.561 11.4453Q119.1 11.1069 118.177 11.0933L116.496 11.0659L116.496 13.978L118.177 13.9917ZM131.981 8.75537L129.263 8.75537L129.263 15L127.92 15L127.92 8.75537L125.203 8.75537L125.203 7.57959L131.981 7.57959L131.981 8.75537ZM136.951 9.04932Q137.915 9.04932 138.677 9.41504Q139.443 9.77734 139.877 10.4575Q140.311 11.1377 140.311 12.0195Q140.311 12.9424 139.853 13.6431Q139.399 14.3403 138.609 14.7266Q137.82 15.1128 136.839 15.1128Q134.863 15.1128 133.793 13.8379Q132.723 12.563 132.723 10.2251Q132.723 8.58789 133.304 7.43262Q133.885 6.27734 134.928 5.68262Q135.97 5.08789 137.355 5.08789Q138.069 5.08789 138.698 5.23486Q139.33 5.38184 139.792 5.66211L139.258 6.75244Q138.561 6.29102 137.385 6.29102Q135.858 6.29102 134.989 7.23779Q134.121 8.18115 134.121 9.98926Q134.121 10.2114 134.135 10.3379Q134.555 9.70898 135.29 9.38086Q136.025 9.04932 136.951 9.04932ZM136.78 13.978Q137.748 13.978 138.349 13.4619Q138.951 12.9424 138.951 12.0742Q138.951 11.2061 138.342 10.6968Q137.734 10.1841 136.712 10.1841Q136.052 10.1841 135.54 10.437Q135.03 10.6865 134.743 11.1206Q134.46 11.5547 134.46 12.0879Q134.46 12.6074 134.73 13.0347Q135.003 13.4585 135.526 13.7183Q136.052 13.978 136.78 13.978ZM152.127 7.57959L152.127 15L150.781 15L150.781 8.75537L147.592 8.75537L147.506 10.4097Q147.434 11.9067 147.24 12.9082Q147.045 13.9097 146.597 14.5112Q146.149 15.1128 145.35 15.1128Q144.987 15.1128 144.522 14.9863L144.608 13.8516Q144.789 13.8926 144.943 13.8926Q145.503 13.8926 145.784 13.4038Q146.064 12.915 146.146 12.2417Q146.231 11.5684 146.303 10.3242L146.43 7.57959L152.127 7.57959ZM161.436 11.3325Q161.436 11.4863 161.409 11.7393L155.387 11.7393Q155.513 12.7168 156.248 13.3149Q156.983 13.9097 158.076 13.9097Q159.406 13.9097 160.216 13.0107L160.958 13.8789Q160.455 14.4668 159.707 14.7778Q158.958 15.0854 158.032 15.0854Q156.856 15.0854 155.947 14.6035Q155.038 14.1182 154.539 13.25Q154.043 12.3818 154.043 11.2915Q154.043 10.2114 154.525 9.34326Q155.011 8.4751 155.855 7.99316Q156.702 7.51123 157.769 7.51123Q158.832 7.51123 159.662 7.99316Q160.496 8.4751 160.965 9.34326Q161.436 10.2114 161.436 11.3325ZM157.769 8.64258Q156.802 8.64258 156.149 9.23047Q155.499 9.81836 155.387 10.772L160.148 10.772Q160.035 9.83545 159.382 9.24072Q158.733 8.64258 157.769 8.64258ZM168.745 8.75537L166.027 8.75537L166.027 15L164.684 15L164.684 8.75537L161.967 8.75537L161.967 7.57959L168.745 7.57959L168.745 8.75537Z" fill="#A2A7B1" fill-opacity="1.000000" fill-rule="evenodd"/>
	<circle id="Ellipse" cx="179.500000" cy="10.000000" r="2.000000" fill="#A2A7B1" fill-opacity="1.000000"/>
	<path id="43 года" d="M198.698 12.5903L196.835 12.5903L196.835 15L195.478 15L195.478 12.5903L190.033 12.5903L190.033 11.6128L195.044 5.20068L196.555 5.20068L191.752 11.3872L195.519 11.3872L195.519 9.26123L196.835 9.26123L196.835 11.3872L198.698 11.3872L198.698 12.5903ZM203.121 9.31592Q204.563 9.45605 205.319 10.2046Q206.077 10.9531 206.077 12.1152Q206.077 12.9561 205.657 13.6362Q205.237 14.313 204.403 14.7129Q203.569 15.1128 202.365 15.1128Q201.316 15.1128 200.349 14.7983Q199.385 14.4805 198.766 13.9233L199.412 12.8159Q199.915 13.291 200.698 13.5781Q201.484 13.8652 202.365 13.8652Q203.459 13.8652 204.068 13.4038Q204.676 12.9424 204.676 12.1289Q204.676 11.3188 204.074 10.8711Q203.473 10.4233 202.253 10.4233L201.47 10.4233L201.47 9.44238L203.934 6.41748L199.218 6.41748L199.218 5.20068L205.684 5.20068L205.684 6.15088L203.121 9.31592ZM217.233 8.75537L213.118 8.75537L213.118 15L211.774 15L211.774 7.57959L217.233 7.57959L217.233 8.75537ZM221.463 15.0854Q220.356 15.0854 219.474 14.5967Q218.592 14.1045 218.093 13.2432Q217.597 12.3818 217.597 11.2915Q217.597 10.1978 218.093 9.33643Q218.592 8.4751 219.474 7.99316Q220.356 7.51123 221.463 7.51123Q222.567 7.51123 223.442 7.99316Q224.317 8.4751 224.813 9.33643Q225.312 10.1978 225.312 11.2915Q225.312 12.3818 224.813 13.2432Q224.317 14.1045 223.442 14.5967Q222.567 15.0854 221.463 15.0854ZM221.463 13.9097Q222.174 13.9097 222.741 13.5815Q223.309 13.25 223.63 12.6553Q223.955 12.0605 223.955 11.2915Q223.955 10.519 223.63 9.92432Q223.309 9.32959 222.741 9.0083Q222.174 8.68701 221.463 8.68701Q220.749 8.68701 220.181 9.0083Q219.614 9.32959 219.282 9.92432Q218.954 10.519 218.954 11.2915Q218.954 12.0605 219.282 12.6553Q219.614 13.25 220.181 13.5815Q220.749 13.9097 221.463 13.9097ZM234.749 13.8242L234.749 16.7227L233.488 16.7227L233.488 15L227.288 15L227.288 16.7227L226.013 16.7227L226.013 13.8242L226.402 13.8242Q227.117 13.7832 227.383 12.8159Q227.65 11.8486 227.749 10.085L227.858 7.57959L233.614 7.57959L233.614 13.8242L234.749 13.8242ZM228.98 10.1841Q228.925 11.5854 228.747 12.5015Q228.573 13.4175 228.111 13.8242L232.271 13.8242L232.271 8.75537L229.051 8.75537L228.98 10.1841ZM239.144 7.51123Q240.685 7.51123 241.502 8.2666Q242.322 9.02197 242.322 10.519L242.322 15L241.048 15L241.048 14.019Q240.713 14.5386 240.087 14.812Q239.465 15.0854 238.614 15.0854Q237.366 15.0854 236.618 14.4839Q235.869 13.8789 235.869 12.9014Q235.869 11.9204 236.584 11.3257Q237.298 10.731 238.85 10.731L240.979 10.731L240.979 10.4644Q240.979 9.59619 240.473 9.13477Q239.971 8.67334 238.99 8.67334Q238.334 8.67334 237.701 8.89209Q237.072 9.10742 236.638 9.46973L236.078 8.46143Q236.652 8 237.448 7.75732Q238.248 7.51123 239.144 7.51123ZM238.836 14.0464Q239.605 14.0464 240.166 13.7046Q240.726 13.3628 240.979 12.7305L240.979 11.6948L238.908 11.6948Q237.199 11.6948 237.199 12.8433Q237.199 13.4038 237.633 13.7251Q238.067 14.0464 238.836 14.0464Z" fill="#A2A7B1" fill-opacity="1.000000" fill-rule="evenodd"/>
</svg>
